<svg width="330" height="20" viewBox="0 0 330 20" fill="none" xmlns="http://www.w3.org/2000/svg">
<path d="M9.46289 9.16992H10.9277C10.9277 10.1921 10.6348 10.9603 10.0488 11.4746C9.4694 11.9824 8.67839 12.2363 7.67578 12.2363C6.97917 12.2363 6.37695 12.0768 5.86914 11.7578C5.36784 11.4388 4.97721 10.9961 4.69727 10.4297C4.42383 9.86328 4.28711 9.20573 4.28711 8.45703V7.31445C4.28711 6.56576 4.42383 5.9082 4.69727 5.3418C4.97721 4.77539 5.36784 4.33268 5.86914 4.01367C6.37695 3.69466 6.97917 3.53516 7.67578 3.53516C8.67839 3.53516 9.47266 3.79232 10.0586 4.30664C10.6445 4.81445 10.9375 5.57943 10.9375 6.60156H9.47266C9.47266 5.96354 9.31966 5.50781 9.01367 5.23438C8.71419 4.95443 8.26823 4.81445 7.67578 4.81445C7.2526 4.81445 6.89453 4.92188 6.60156 5.13672C6.3151 5.34505 6.09701 5.63802 5.94727 6.01562C5.80404 6.39323 5.73242 6.82292 5.73242 7.30469V8.45703C5.73242 8.94531 5.80404 9.37826 5.94727 9.75586C6.09701 10.1335 6.3151 10.4297 6.60156 10.6445C6.89453 10.8529 7.2526 10.957 7.67578 10.957C8.26823 10.957 8.71419 10.8203 9.01367 10.5469C9.31315 10.2734 9.46289 9.81445 9.46289 9.16992ZM2.02148 7.88086C2.02148 8.74674 2.17122 9.55404 2.4707 10.3027C2.77018 11.0449 3.18359 11.696 3.71094 12.2559C4.24479 12.8092 4.86003 13.2422 5.55664 13.5547C6.25977 13.8607 7.01172 14.0137 7.8125 14.0137C8.60677 14.0137 9.35221 13.8607 10.0488 13.5547C10.7454 13.2422 11.3574 12.8092 11.8848 12.2559C12.4186 11.696 12.8353 11.0449 13.1348 10.3027C13.4342 9.55404 13.584 8.74674 13.584 7.88086C13.584 7.01497 13.4342 6.21094 13.1348 5.46875C12.8353 4.72656 12.4186 4.07878 11.8848 3.52539C11.3574 2.97201 10.7454 2.54232 10.0488 2.23633C9.35221 1.92383 8.60677 1.76758 7.8125 1.76758C7.01172 1.76758 6.25977 1.92383 5.55664 2.23633C4.86003 2.54232 4.24479 2.97201 3.71094 3.52539C3.18359 4.07878 2.77018 4.72656 2.4707 5.46875C2.17122 6.21094 2.02148 7.01497 2.02148 7.88086ZM0.878906 7.88086C0.878906 6.8457 1.05794 5.88542 1.41602 5C1.77409 4.11458 2.27214 3.3431 2.91016 2.68555C3.54818 2.02148 4.28385 1.50716 5.11719 1.14258C5.95703 0.771484 6.85547 0.585938 7.8125 0.585938C8.76953 0.585938 9.66471 0.771484 10.498 1.14258C11.3379 1.50716 12.0736 2.02148 12.7051 2.68555C13.3431 3.3431 13.8411 4.11458 14.1992 5C14.5573 5.88542 14.7363 6.8457 14.7363 7.88086C14.7363 8.91602 14.5573 9.8763 14.1992 10.7617C13.8411 11.6471 13.3431 12.4251 12.7051 13.0957C12.0736 13.7598 11.3379 14.2773 10.498 14.6484C9.66471 15.0195 8.76953 15.2051 7.8125 15.2051C6.85547 15.2051 5.95703 15.0195 5.11719 14.6484C4.28385 14.2773 3.54818 13.7598 2.91016 13.0957C2.27214 12.4251 1.77409 11.6471 1.41602 10.7617C1.05794 9.8763 0.878906 8.91602 0.878906 7.88086ZM30.5469 10.3711H32.9883C32.9102 11.3021 32.6497 12.1322 32.207 12.8613C31.7643 13.584 31.1426 14.1536 30.3418 14.5703C29.541 14.987 28.5677 15.1953 27.4219 15.1953C26.543 15.1953 25.752 15.0391 25.0488 14.7266C24.3457 14.4076 23.7435 13.9583 23.2422 13.3789C22.7409 12.793 22.3568 12.0866 22.0898 11.2598C21.8294 10.4329 21.6992 9.50846 21.6992 8.48633V7.30469C21.6992 6.28255 21.8327 5.35807 22.0996 4.53125C22.373 3.70443 22.7637 2.99805 23.2715 2.41211C23.7793 1.81966 24.388 1.36719 25.0977 1.05469C25.8138 0.742188 26.6178 0.585938 27.5098 0.585938C28.6426 0.585938 29.5996 0.794271 30.3809 1.21094C31.1621 1.6276 31.7676 2.20378 32.1973 2.93945C32.6335 3.67513 32.9004 4.51823 32.998 5.46875H30.5566C30.4915 4.85677 30.3483 4.33268 30.127 3.89648C29.9121 3.46029 29.5931 3.12826 29.1699 2.90039C28.7467 2.66602 28.1934 2.54883 27.5098 2.54883C26.9499 2.54883 26.4616 2.65299 26.0449 2.86133C25.6283 3.06966 25.2799 3.37565 25 3.7793C24.7201 4.18294 24.5085 4.68099 24.3652 5.27344C24.2285 5.85938 24.1602 6.52995 24.1602 7.28516V8.48633C24.1602 9.20247 24.222 9.85352 24.3457 10.4395C24.4759 11.0189 24.6712 11.5169 24.9316 11.9336C25.1986 12.3503 25.5371 12.6725 25.9473 12.9004C26.3574 13.1283 26.849 13.2422 27.4219 13.2422C28.1185 13.2422 28.6816 13.1315 29.1113 12.9102C29.5475 12.6888 29.8763 12.3665 30.0977 11.9434C30.3255 11.5137 30.4753 10.9896 30.5469 10.3711ZM34.5312 9.83398V9.60938C34.5312 8.84766 34.6419 8.14128 34.8633 7.49023C35.0846 6.83268 35.4036 6.26302 35.8203 5.78125C36.2435 5.29297 36.7578 4.91536 37.3633 4.64844C37.9753 4.375 38.6654 4.23828 39.4336 4.23828C40.2083 4.23828 40.8984 4.375 41.5039 4.64844C42.1159 4.91536 42.6335 5.29297 43.0566 5.78125C43.4798 6.26302 43.8021 6.83268 44.0234 7.49023C44.2448 8.14128 44.3555 8.84766 44.3555 9.60938V9.83398C44.3555 10.5957 44.2448 11.3021 44.0234 11.9531C43.8021 12.6042 43.4798 13.1738 43.0566 13.6621C42.6335 14.1439 42.1191 14.5215 41.5137 14.7949C40.9082 15.0618 40.2214 15.1953 39.4531 15.1953C38.6784 15.1953 37.985 15.0618 37.373 14.7949C36.7676 14.5215 36.2533 14.1439 35.8301 13.6621C35.4069 13.1738 35.0846 12.6042 34.8633 11.9531C34.6419 11.3021 34.5312 10.5957 34.5312 9.83398ZM36.8848 9.60938V9.83398C36.8848 10.3092 36.9336 10.7585 37.0312 11.1816C37.1289 11.6048 37.2819 11.9759 37.4902 12.2949C37.6986 12.6139 37.9655 12.8646 38.291 13.0469C38.6165 13.2292 39.0039 13.3203 39.4531 13.3203C39.8893 13.3203 40.2669 13.2292 40.5859 13.0469C40.9115 12.8646 41.1784 12.6139 41.3867 12.2949C41.5951 11.9759 41.748 11.6048 41.8457 11.1816C41.9499 10.7585 42.002 10.3092 42.002 9.83398V9.60938C42.002 9.14062 41.9499 8.69792 41.8457 8.28125C41.748 7.85807 41.5918 7.48372 41.377 7.1582C41.1686 6.83268 40.9017 6.57878 40.5762 6.39648C40.2572 6.20768 39.8763 6.11328 39.4336 6.11328C38.9909 6.11328 38.6068 6.20768 38.2812 6.39648C37.9622 6.57878 37.6986 6.83268 37.4902 7.1582C37.2819 7.48372 37.1289 7.85807 37.0312 8.28125C36.9336 8.69792 36.8848 9.14062 36.8848 9.60938ZM48.6914 6.46484V19.0625H46.3379V4.43359H48.5059L48.6914 6.46484ZM55.5762 9.61914V9.82422C55.5762 10.5924 55.485 11.3053 55.3027 11.9629C55.127 12.6139 54.8633 13.1836 54.5117 13.6719C54.1667 14.1536 53.7402 14.528 53.2324 14.7949C52.7246 15.0618 52.1387 15.1953 51.4746 15.1953C50.8171 15.1953 50.2409 15.0749 49.7461 14.834C49.2578 14.5866 48.8444 14.2383 48.5059 13.7891C48.1673 13.3398 47.8939 12.8125 47.6855 12.207C47.4837 11.5951 47.3405 10.9245 47.2559 10.1953V9.4043C47.3405 8.62956 47.4837 7.92643 47.6855 7.29492C47.8939 6.66341 48.1673 6.11979 48.5059 5.66406C48.8444 5.20833 49.2578 4.85677 49.7461 4.60938C50.2344 4.36198 50.804 4.23828 51.4551 4.23828C52.1191 4.23828 52.7083 4.36849 53.2227 4.62891C53.737 4.88281 54.1699 5.2474 54.5215 5.72266C54.873 6.19141 55.1367 6.75781 55.3125 7.42188C55.4883 8.07943 55.5762 8.81185 55.5762 9.61914ZM53.2227 9.82422V9.61914C53.2227 9.13086 53.1771 8.67839 53.0859 8.26172C52.9948 7.83854 52.8516 7.46745 52.6562 7.14844C52.4609 6.82943 52.2103 6.58203 51.9043 6.40625C51.6048 6.22396 51.2435 6.13281 50.8203 6.13281C50.4036 6.13281 50.0456 6.20443 49.7461 6.34766C49.4466 6.48438 49.196 6.67643 48.9941 6.92383C48.7923 7.17122 48.6361 7.46094 48.5254 7.79297C48.4147 8.11849 48.3366 8.47331 48.291 8.85742V10.752C48.3691 11.2207 48.5026 11.6504 48.6914 12.041C48.8802 12.4316 49.1471 12.7441 49.4922 12.9785C49.8438 13.2064 50.293 13.3203 50.8398 13.3203C51.263 13.3203 51.6243 13.2292 51.9238 13.0469C52.2233 12.8646 52.4674 12.6139 52.6562 12.2949C52.8516 11.9694 52.9948 11.5951 53.0859 11.1719C53.1771 10.7487 53.2227 10.2995 53.2227 9.82422ZM60.5273 13.8477L63.3984 4.43359H65.918L61.6797 16.6113C61.582 16.8717 61.4551 17.1549 61.2988 17.4609C61.1426 17.7669 60.9375 18.0566 60.6836 18.3301C60.4362 18.61 60.127 18.8346 59.7559 19.0039C59.3848 19.1797 58.9355 19.2676 58.4082 19.2676C58.1999 19.2676 57.998 19.248 57.8027 19.209C57.6139 19.1764 57.4349 19.1406 57.2656 19.1016L57.2559 17.3047C57.321 17.3112 57.3991 17.3177 57.4902 17.3242C57.5879 17.3307 57.666 17.334 57.7246 17.334C58.1152 17.334 58.4408 17.2852 58.7012 17.1875C58.9616 17.0964 59.1732 16.9466 59.3359 16.7383C59.5052 16.5299 59.6484 16.25 59.7656 15.8984L60.5273 13.8477ZM58.9062 4.43359L61.416 12.3438L61.8359 14.8242L60.2051 15.2441L56.3672 4.43359H58.9062ZM69.6289 6.44531V15H67.2754V4.43359H69.5215L69.6289 6.44531ZM72.8613 4.36523L72.8418 6.55273C72.6986 6.52669 72.5423 6.50716 72.373 6.49414C72.2103 6.48112 72.0475 6.47461 71.8848 6.47461C71.4811 6.47461 71.1263 6.5332 70.8203 6.65039C70.5143 6.76107 70.2572 6.92383 70.0488 7.13867C69.847 7.34701 69.6908 7.60091 69.5801 7.90039C69.4694 8.19987 69.4043 8.53516 69.3848 8.90625L68.8477 8.94531C68.8477 8.28125 68.9128 7.66602 69.043 7.09961C69.1732 6.5332 69.3685 6.03516 69.6289 5.60547C69.8958 5.17578 70.2279 4.84049 70.625 4.59961C71.0286 4.35872 71.4941 4.23828 72.0215 4.23828C72.1647 4.23828 72.3177 4.2513 72.4805 4.27734C72.6497 4.30339 72.7767 4.33268 72.8613 4.36523ZM76.8555 4.43359V15H74.4922V4.43359H76.8555ZM74.3359 1.66016C74.3359 1.30208 74.4531 1.00586 74.6875 0.771484C74.9284 0.530599 75.2604 0.410156 75.6836 0.410156C76.1003 0.410156 76.429 0.530599 76.6699 0.771484C76.9108 1.00586 77.0312 1.30208 77.0312 1.66016C77.0312 2.01172 76.9108 2.30469 76.6699 2.53906C76.429 2.77344 76.1003 2.89062 75.6836 2.89062C75.2604 2.89062 74.9284 2.77344 74.6875 2.53906C74.4531 2.30469 74.3359 2.01172 74.3359 1.66016ZM86.2012 4.43359H88.3398V14.707C88.3398 15.6576 88.138 16.4648 87.7344 17.1289C87.3307 17.793 86.7676 18.2975 86.0449 18.6426C85.3223 18.9941 84.4857 19.1699 83.5352 19.1699C83.1315 19.1699 82.6823 19.1113 82.1875 18.9941C81.6992 18.877 81.224 18.6882 80.7617 18.4277C80.306 18.1738 79.9251 17.8385 79.6191 17.4219L80.7227 16.0352C81.1003 16.4844 81.5169 16.8132 81.9727 17.0215C82.4284 17.2298 82.9069 17.334 83.4082 17.334C83.9486 17.334 84.4076 17.2331 84.7852 17.0312C85.1693 16.8359 85.4655 16.5462 85.6738 16.1621C85.8822 15.778 85.9863 15.3092 85.9863 14.7559V6.82617L86.2012 4.43359ZM79.0234 9.83398V9.62891C79.0234 8.82812 79.1211 8.09896 79.3164 7.44141C79.5117 6.77734 79.7917 6.20768 80.1562 5.73242C80.5208 5.25065 80.9635 4.88281 81.4844 4.62891C82.0052 4.36849 82.5944 4.23828 83.252 4.23828C83.9355 4.23828 84.5182 4.36198 85 4.60938C85.4883 4.85677 85.8952 5.21159 86.2207 5.67383C86.5462 6.12956 86.8001 6.67643 86.9824 7.31445C87.1712 7.94596 87.3112 8.64909 87.4023 9.42383V10.0781C87.3177 10.8333 87.1745 11.5234 86.9727 12.1484C86.7708 12.7734 86.5039 13.3138 86.1719 13.7695C85.8398 14.2253 85.4297 14.5768 84.9414 14.8242C84.4596 15.0716 83.89 15.1953 83.2324 15.1953C82.5879 15.1953 82.0052 15.0618 81.4844 14.7949C80.9701 14.528 80.5273 14.1536 80.1562 13.6719C79.7917 13.1901 79.5117 12.6237 79.3164 11.9727C79.1211 11.3151 79.0234 10.6022 79.0234 9.83398ZM81.377 9.62891V9.83398C81.377 10.3158 81.4225 10.765 81.5137 11.1816C81.6113 11.5983 81.7578 11.9661 81.9531 12.2852C82.1549 12.5977 82.4089 12.8451 82.7148 13.0273C83.0273 13.2031 83.3952 13.291 83.8184 13.291C84.3717 13.291 84.8242 13.1738 85.1758 12.9395C85.5339 12.7051 85.8073 12.3893 85.9961 11.9922C86.1914 11.5885 86.3281 11.1393 86.4062 10.6445V8.87695C86.3672 8.49284 86.2858 8.13477 86.1621 7.80273C86.0449 7.4707 85.8854 7.18099 85.6836 6.93359C85.4818 6.67969 85.2279 6.48438 84.9219 6.34766C84.6159 6.20443 84.2546 6.13281 83.8379 6.13281C83.4147 6.13281 83.0469 6.22396 82.7344 6.40625C82.4219 6.58854 82.1647 6.83919 81.9629 7.1582C81.7676 7.47721 81.6211 7.84831 81.5234 8.27148C81.4258 8.69466 81.377 9.14714 81.377 9.62891ZM93.1055 0V15H90.7617V0H93.1055ZM92.6953 9.32617L91.9336 9.31641C91.9401 8.58724 92.041 7.91341 92.2363 7.29492C92.4382 6.67643 92.7181 6.13932 93.0762 5.68359C93.4408 5.22135 93.877 4.86654 94.3848 4.61914C94.8926 4.36523 95.4557 4.23828 96.0742 4.23828C96.5951 4.23828 97.0638 4.3099 97.4805 4.45312C97.9036 4.59635 98.2682 4.82747 98.5742 5.14648C98.8802 5.45898 99.1113 5.86914 99.2676 6.37695C99.4303 6.87826 99.5117 7.49023 99.5117 8.21289V15H97.1484V8.19336C97.1484 7.68555 97.0736 7.2819 96.9238 6.98242C96.7806 6.68294 96.569 6.4681 96.2891 6.33789C96.0091 6.20117 95.6673 6.13281 95.2637 6.13281C94.8405 6.13281 94.4661 6.21745 94.1406 6.38672C93.8216 6.55599 93.5547 6.78711 93.3398 7.08008C93.125 7.37305 92.9622 7.71159 92.8516 8.0957C92.7474 8.47982 92.6953 8.88997 92.6953 9.32617ZM106.738 4.43359V6.15234H100.781V4.43359H106.738ZM102.5 1.8457H104.854V12.0801C104.854 12.4056 104.899 12.6562 104.99 12.832C105.088 13.0013 105.221 13.1152 105.391 13.1738C105.56 13.2324 105.758 13.2617 105.986 13.2617C106.149 13.2617 106.305 13.252 106.455 13.2324C106.605 13.2129 106.725 13.1934 106.816 13.1738L106.826 14.9707C106.631 15.0293 106.403 15.0814 106.143 15.127C105.889 15.1725 105.596 15.1953 105.264 15.1953C104.723 15.1953 104.245 15.1009 103.828 14.9121C103.411 14.7168 103.086 14.401 102.852 13.9648C102.617 13.5286 102.5 12.9492 102.5 12.2266V1.8457ZM122.93 13.125V15H113.398V13.3887L118.027 8.33984C118.535 7.76693 118.936 7.27214 119.229 6.85547C119.521 6.4388 119.727 6.06445 119.844 5.73242C119.967 5.39388 120.029 5.0651 120.029 4.74609C120.029 4.29688 119.945 3.90299 119.775 3.56445C119.613 3.2194 119.372 2.94922 119.053 2.75391C118.734 2.55208 118.346 2.45117 117.891 2.45117C117.363 2.45117 116.921 2.5651 116.562 2.79297C116.204 3.02083 115.934 3.33659 115.752 3.74023C115.57 4.13737 115.479 4.5931 115.479 5.10742H113.125C113.125 4.2806 113.314 3.52539 113.691 2.8418C114.069 2.15169 114.616 1.60482 115.332 1.20117C116.048 0.791016 116.911 0.585938 117.92 0.585938C118.87 0.585938 119.678 0.745443 120.342 1.06445C121.006 1.38346 121.51 1.83594 121.855 2.42188C122.207 3.00781 122.383 3.70117 122.383 4.50195C122.383 4.94466 122.311 5.38411 122.168 5.82031C122.025 6.25651 121.82 6.69271 121.553 7.12891C121.292 7.55859 120.983 7.99154 120.625 8.42773C120.267 8.85742 119.873 9.29362 119.443 9.73633L116.367 13.125H122.93ZM134.033 6.69922V9.02344C134.033 10.1367 133.923 11.0872 133.701 11.875C133.486 12.6562 133.174 13.291 132.764 13.7793C132.354 14.2676 131.862 14.6257 131.289 14.8535C130.723 15.0814 130.088 15.1953 129.385 15.1953C128.825 15.1953 128.304 15.1237 127.822 14.9805C127.347 14.8372 126.917 14.6126 126.533 14.3066C126.149 14.0007 125.82 13.6068 125.547 13.125C125.28 12.6367 125.072 12.054 124.922 11.377C124.779 10.6999 124.707 9.91536 124.707 9.02344V6.69922C124.707 5.57943 124.818 4.63542 125.039 3.86719C125.26 3.09245 125.576 2.46419 125.986 1.98242C126.396 1.49414 126.885 1.13932 127.451 0.917969C128.024 0.696615 128.662 0.585938 129.365 0.585938C129.932 0.585938 130.452 0.657552 130.928 0.800781C131.41 0.9375 131.839 1.1556 132.217 1.45508C132.601 1.75456 132.926 2.14518 133.193 2.62695C133.467 3.10221 133.675 3.67839 133.818 4.35547C133.962 5.02604 134.033 5.80729 134.033 6.69922ZM131.68 9.35547V6.34766C131.68 5.78125 131.647 5.2832 131.582 4.85352C131.517 4.41732 131.419 4.04948 131.289 3.75C131.165 3.44401 131.009 3.19661 130.82 3.00781C130.632 2.8125 130.417 2.67253 130.176 2.58789C129.935 2.49674 129.665 2.45117 129.365 2.45117C129.001 2.45117 128.675 2.52279 128.389 2.66602C128.102 2.80273 127.861 3.02409 127.666 3.33008C127.471 3.63607 127.321 4.03971 127.217 4.54102C127.119 5.03581 127.07 5.63802 127.07 6.34766V9.35547C127.07 9.92839 127.103 10.4329 127.168 10.8691C127.233 11.3053 127.331 11.6797 127.461 11.9922C127.591 12.2982 127.747 12.5521 127.93 12.7539C128.118 12.9492 128.333 13.0924 128.574 13.1836C128.822 13.2747 129.092 13.3203 129.385 13.3203C129.756 13.3203 130.085 13.2487 130.371 13.1055C130.658 12.9622 130.898 12.7344 131.094 12.4219C131.289 12.1029 131.436 11.6895 131.533 11.1816C131.631 10.6738 131.68 10.0651 131.68 9.35547ZM145.664 13.125V15H136.133V13.3887L140.762 8.33984C141.27 7.76693 141.67 7.27214 141.963 6.85547C142.256 6.4388 142.461 6.06445 142.578 5.73242C142.702 5.39388 142.764 5.0651 142.764 4.74609C142.764 4.29688 142.679 3.90299 142.51 3.56445C142.347 3.2194 142.106 2.94922 141.787 2.75391C141.468 2.55208 141.081 2.45117 140.625 2.45117C140.098 2.45117 139.655 2.5651 139.297 2.79297C138.939 3.02083 138.669 3.33659 138.486 3.74023C138.304 4.13737 138.213 4.5931 138.213 5.10742H135.859C135.859 4.2806 136.048 3.52539 136.426 2.8418C136.803 2.15169 137.35 1.60482 138.066 1.20117C138.783 0.791016 139.645 0.585938 140.654 0.585938C141.605 0.585938 142.412 0.745443 143.076 1.06445C143.74 1.38346 144.245 1.83594 144.59 2.42188C144.941 3.00781 145.117 3.70117 145.117 4.50195C145.117 4.94466 145.046 5.38411 144.902 5.82031C144.759 6.25651 144.554 6.69271 144.287 7.12891C144.027 7.55859 143.717 7.99154 143.359 8.42773C143.001 8.85742 142.607 9.29362 142.178 9.73633L139.102 13.125H145.664ZM157.031 13.125V15H147.5V13.3887L152.129 8.33984C152.637 7.76693 153.037 7.27214 153.33 6.85547C153.623 6.4388 153.828 6.06445 153.945 5.73242C154.069 5.39388 154.131 5.0651 154.131 4.74609C154.131 4.29688 154.046 3.90299 153.877 3.56445C153.714 3.2194 153.473 2.94922 153.154 2.75391C152.835 2.55208 152.448 2.45117 151.992 2.45117C151.465 2.45117 151.022 2.5651 150.664 2.79297C150.306 3.02083 150.036 3.33659 149.854 3.74023C149.671 4.13737 149.58 4.5931 149.58 5.10742H147.227C147.227 4.2806 147.415 3.52539 147.793 2.8418C148.171 2.15169 148.717 1.60482 149.434 1.20117C150.15 0.791016 151.012 0.585938 152.021 0.585938C152.972 0.585938 153.779 0.745443 154.443 1.06445C155.107 1.38346 155.612 1.83594 155.957 2.42188C156.309 3.00781 156.484 3.70117 156.484 4.50195C156.484 4.94466 156.413 5.38411 156.27 5.82031C156.126 6.25651 155.921 6.69271 155.654 7.12891C155.394 7.55859 155.085 7.99154 154.727 8.42773C154.368 8.85742 153.975 9.29362 153.545 9.73633L150.469 13.125H157.031ZM174.736 2.67578L170.488 15H167.92L173.271 0.78125H174.912L174.736 2.67578ZM178.291 15L174.033 2.67578L173.848 0.78125H175.498L180.869 15H178.291ZM178.086 9.72656V11.6699H170.352V9.72656H178.086ZM184.746 0V15H182.383V0H184.746ZM189.844 0V15H187.48V0H189.844ZM199.766 6.44531V15H197.412V4.43359H199.658L199.766 6.44531ZM202.998 4.36523L202.979 6.55273C202.835 6.52669 202.679 6.50716 202.51 6.49414C202.347 6.48112 202.184 6.47461 202.021 6.47461C201.618 6.47461 201.263 6.5332 200.957 6.65039C200.651 6.76107 200.394 6.92383 200.186 7.13867C199.984 7.34701 199.827 7.60091 199.717 7.90039C199.606 8.19987 199.541 8.53516 199.521 8.90625L198.984 8.94531C198.984 8.28125 199.049 7.66602 199.18 7.09961C199.31 6.5332 199.505 6.03516 199.766 5.60547C200.033 5.17578 200.365 4.84049 200.762 4.59961C201.165 4.35872 201.631 4.23828 202.158 4.23828C202.301 4.23828 202.454 4.2513 202.617 4.27734C202.786 4.30339 202.913 4.33268 202.998 4.36523ZM206.992 4.43359V15H204.629V4.43359H206.992ZM204.473 1.66016C204.473 1.30208 204.59 1.00586 204.824 0.771484C205.065 0.530599 205.397 0.410156 205.82 0.410156C206.237 0.410156 206.566 0.530599 206.807 0.771484C207.048 1.00586 207.168 1.30208 207.168 1.66016C207.168 2.01172 207.048 2.30469 206.807 2.53906C206.566 2.77344 206.237 2.89062 205.82 2.89062C205.397 2.89062 205.065 2.77344 204.824 2.53906C204.59 2.30469 204.473 2.01172 204.473 1.66016ZM216.338 4.43359H218.477V14.707C218.477 15.6576 218.275 16.4648 217.871 17.1289C217.467 17.793 216.904 18.2975 216.182 18.6426C215.459 18.9941 214.622 19.1699 213.672 19.1699C213.268 19.1699 212.819 19.1113 212.324 18.9941C211.836 18.877 211.361 18.6882 210.898 18.4277C210.443 18.1738 210.062 17.8385 209.756 17.4219L210.859 16.0352C211.237 16.4844 211.654 16.8132 212.109 17.0215C212.565 17.2298 213.044 17.334 213.545 17.334C214.085 17.334 214.544 17.2331 214.922 17.0312C215.306 16.8359 215.602 16.5462 215.811 16.1621C216.019 15.778 216.123 15.3092 216.123 14.7559V6.82617L216.338 4.43359ZM209.16 9.83398V9.62891C209.16 8.82812 209.258 8.09896 209.453 7.44141C209.648 6.77734 209.928 6.20768 210.293 5.73242C210.658 5.25065 211.1 4.88281 211.621 4.62891C212.142 4.36849 212.731 4.23828 213.389 4.23828C214.072 4.23828 214.655 4.36198 215.137 4.60938C215.625 4.85677 216.032 5.21159 216.357 5.67383C216.683 6.12956 216.937 6.67643 217.119 7.31445C217.308 7.94596 217.448 8.64909 217.539 9.42383V10.0781C217.454 10.8333 217.311 11.5234 217.109 12.1484C216.908 12.7734 216.641 13.3138 216.309 13.7695C215.977 14.2253 215.566 14.5768 215.078 14.8242C214.596 15.0716 214.027 15.1953 213.369 15.1953C212.725 15.1953 212.142 15.0618 211.621 14.7949C211.107 14.528 210.664 14.1536 210.293 13.6719C209.928 13.1901 209.648 12.6237 209.453 11.9727C209.258 11.3151 209.16 10.6022 209.16 9.83398ZM211.514 9.62891V9.83398C211.514 10.3158 211.559 10.765 211.65 11.1816C211.748 11.5983 211.895 11.9661 212.09 12.2852C212.292 12.5977 212.546 12.8451 212.852 13.0273C213.164 13.2031 213.532 13.291 213.955 13.291C214.508 13.291 214.961 13.1738 215.312 12.9395C215.671 12.7051 215.944 12.3893 216.133 11.9922C216.328 11.5885 216.465 11.1393 216.543 10.6445V8.87695C216.504 8.49284 216.423 8.13477 216.299 7.80273C216.182 7.4707 216.022 7.18099 215.82 6.93359C215.618 6.67969 215.365 6.48438 215.059 6.34766C214.753 6.20443 214.391 6.13281 213.975 6.13281C213.551 6.13281 213.184 6.22396 212.871 6.40625C212.559 6.58854 212.301 6.83919 212.1 7.1582C211.904 7.47721 211.758 7.84831 211.66 8.27148C211.562 8.69466 211.514 9.14714 211.514 9.62891ZM223.242 0V15H220.898V0H223.242ZM222.832 9.32617L222.07 9.31641C222.077 8.58724 222.178 7.91341 222.373 7.29492C222.575 6.67643 222.855 6.13932 223.213 5.68359C223.577 5.22135 224.014 4.86654 224.521 4.61914C225.029 4.36523 225.592 4.23828 226.211 4.23828C226.732 4.23828 227.201 4.3099 227.617 4.45312C228.04 4.59635 228.405 4.82747 228.711 5.14648C229.017 5.45898 229.248 5.86914 229.404 6.37695C229.567 6.87826 229.648 7.49023 229.648 8.21289V15H227.285V8.19336C227.285 7.68555 227.21 7.2819 227.061 6.98242C226.917 6.68294 226.706 6.4681 226.426 6.33789C226.146 6.20117 225.804 6.13281 225.4 6.13281C224.977 6.13281 224.603 6.21745 224.277 6.38672C223.958 6.55599 223.691 6.78711 223.477 7.08008C223.262 7.37305 223.099 7.71159 222.988 8.0957C222.884 8.47982 222.832 8.88997 222.832 9.32617ZM236.875 4.43359V6.15234H230.918V4.43359H236.875ZM232.637 1.8457H234.99V12.0801C234.99 12.4056 235.036 12.6562 235.127 12.832C235.225 13.0013 235.358 13.1152 235.527 13.1738C235.697 13.2324 235.895 13.2617 236.123 13.2617C236.286 13.2617 236.442 13.252 236.592 13.2324C236.742 13.2129 236.862 13.1934 236.953 13.1738L236.963 14.9707C236.768 15.0293 236.54 15.0814 236.279 15.127C236.025 15.1725 235.732 15.1953 235.4 15.1953C234.86 15.1953 234.382 15.1009 233.965 14.9121C233.548 14.7168 233.223 14.401 232.988 13.9648C232.754 13.5286 232.637 12.9492 232.637 12.2266V1.8457ZM244.619 12.1387C244.619 11.9043 244.561 11.6927 244.443 11.5039C244.326 11.3086 244.102 11.1328 243.77 10.9766C243.444 10.8203 242.962 10.6771 242.324 10.5469C241.764 10.4232 241.25 10.2767 240.781 10.1074C240.319 9.93164 239.922 9.72005 239.59 9.47266C239.258 9.22526 239.001 8.93229 238.818 8.59375C238.636 8.25521 238.545 7.86458 238.545 7.42188C238.545 6.99219 238.639 6.58529 238.828 6.20117C239.017 5.81706 239.287 5.47852 239.639 5.18555C239.99 4.89258 240.417 4.66146 240.918 4.49219C241.426 4.32292 241.992 4.23828 242.617 4.23828C243.503 4.23828 244.261 4.38802 244.893 4.6875C245.531 4.98047 246.019 5.38086 246.357 5.88867C246.696 6.38997 246.865 6.95638 246.865 7.58789H244.512C244.512 7.30794 244.44 7.04753 244.297 6.80664C244.16 6.55924 243.952 6.36068 243.672 6.21094C243.392 6.05469 243.04 5.97656 242.617 5.97656C242.214 5.97656 241.878 6.04167 241.611 6.17188C241.351 6.29557 241.156 6.45833 241.025 6.66016C240.902 6.86198 240.84 7.08333 240.84 7.32422C240.84 7.5 240.872 7.65951 240.938 7.80273C241.009 7.93945 241.126 8.06641 241.289 8.18359C241.452 8.29427 241.673 8.39844 241.953 8.49609C242.24 8.59375 242.598 8.68815 243.027 8.7793C243.835 8.94857 244.528 9.16667 245.107 9.43359C245.693 9.69401 246.143 10.0326 246.455 10.4492C246.768 10.8594 246.924 11.3802 246.924 12.0117C246.924 12.4805 246.823 12.9102 246.621 13.3008C246.426 13.6849 246.139 14.0202 245.762 14.3066C245.384 14.5866 244.932 14.8047 244.404 14.9609C243.883 15.1172 243.298 15.1953 242.646 15.1953C241.689 15.1953 240.879 15.026 240.215 14.6875C239.551 14.3424 239.046 13.903 238.701 13.3691C238.363 12.8288 238.193 12.2689 238.193 11.6895H240.469C240.495 12.1257 240.615 12.474 240.83 12.7344C241.051 12.9883 241.325 13.1738 241.65 13.291C241.982 13.4017 242.324 13.457 242.676 13.457C243.099 13.457 243.454 13.4017 243.74 13.291C244.027 13.1738 244.245 13.0176 244.395 12.8223C244.544 12.6204 244.619 12.3926 244.619 12.1387ZM256.328 6.44531V15H253.975V4.43359H256.221L256.328 6.44531ZM259.561 4.36523L259.541 6.55273C259.398 6.52669 259.242 6.50716 259.072 6.49414C258.91 6.48112 258.747 6.47461 258.584 6.47461C258.18 6.47461 257.826 6.5332 257.52 6.65039C257.214 6.76107 256.956 6.92383 256.748 7.13867C256.546 7.34701 256.39 7.60091 256.279 7.90039C256.169 8.19987 256.104 8.53516 256.084 8.90625L255.547 8.94531C255.547 8.28125 255.612 7.66602 255.742 7.09961C255.872 6.5332 256.068 6.03516 256.328 5.60547C256.595 5.17578 256.927 4.84049 257.324 4.59961C257.728 4.35872 258.193 4.23828 258.721 4.23828C258.864 4.23828 259.017 4.2513 259.18 4.27734C259.349 4.30339 259.476 4.33268 259.561 4.36523ZM265.498 15.1953C264.717 15.1953 264.01 15.0684 263.379 14.8145C262.754 14.554 262.22 14.1927 261.777 13.7305C261.341 13.2682 261.006 12.7246 260.771 12.0996C260.537 11.4746 260.42 10.8008 260.42 10.0781V9.6875C260.42 8.86068 260.54 8.11198 260.781 7.44141C261.022 6.77083 261.357 6.19792 261.787 5.72266C262.217 5.24089 262.725 4.87305 263.311 4.61914C263.896 4.36523 264.531 4.23828 265.215 4.23828C265.97 4.23828 266.631 4.36523 267.197 4.61914C267.764 4.87305 268.232 5.23112 268.604 5.69336C268.981 6.14909 269.261 6.69271 269.443 7.32422C269.632 7.95573 269.727 8.65234 269.727 9.41406V10.4199H261.562V8.73047H267.402V8.54492C267.389 8.12174 267.305 7.72461 267.148 7.35352C266.999 6.98242 266.768 6.68294 266.455 6.45508C266.143 6.22721 265.726 6.11328 265.205 6.11328C264.814 6.11328 264.466 6.19792 264.16 6.36719C263.861 6.52995 263.61 6.76758 263.408 7.08008C263.206 7.39258 263.05 7.77018 262.939 8.21289C262.835 8.64909 262.783 9.14062 262.783 9.6875V10.0781C262.783 10.5404 262.845 10.9701 262.969 11.3672C263.099 11.7578 263.288 12.0996 263.535 12.3926C263.783 12.6855 264.082 12.9167 264.434 13.0859C264.785 13.2487 265.186 13.3301 265.635 13.3301C266.201 13.3301 266.706 13.2161 267.148 12.9883C267.591 12.7604 267.975 12.4382 268.301 12.0215L269.541 13.2227C269.313 13.5547 269.017 13.8737 268.652 14.1797C268.288 14.4792 267.842 14.7233 267.314 14.9121C266.794 15.1009 266.188 15.1953 265.498 15.1953ZM277.49 12.1387C277.49 11.9043 277.432 11.6927 277.314 11.5039C277.197 11.3086 276.973 11.1328 276.641 10.9766C276.315 10.8203 275.833 10.6771 275.195 10.5469C274.635 10.4232 274.121 10.2767 273.652 10.1074C273.19 9.93164 272.793 9.72005 272.461 9.47266C272.129 9.22526 271.872 8.93229 271.689 8.59375C271.507 8.25521 271.416 7.86458 271.416 7.42188C271.416 6.99219 271.51 6.58529 271.699 6.20117C271.888 5.81706 272.158 5.47852 272.51 5.18555C272.861 4.89258 273.288 4.66146 273.789 4.49219C274.297 4.32292 274.863 4.23828 275.488 4.23828C276.374 4.23828 277.132 4.38802 277.764 4.6875C278.402 4.98047 278.89 5.38086 279.229 5.88867C279.567 6.38997 279.736 6.95638 279.736 7.58789H277.383C277.383 7.30794 277.311 7.04753 277.168 6.80664C277.031 6.55924 276.823 6.36068 276.543 6.21094C276.263 6.05469 275.911 5.97656 275.488 5.97656C275.085 5.97656 274.749 6.04167 274.482 6.17188C274.222 6.29557 274.027 6.45833 273.896 6.66016C273.773 6.86198 273.711 7.08333 273.711 7.32422C273.711 7.5 273.743 7.65951 273.809 7.80273C273.88 7.93945 273.997 8.06641 274.16 8.18359C274.323 8.29427 274.544 8.39844 274.824 8.49609C275.111 8.59375 275.469 8.68815 275.898 8.7793C276.706 8.94857 277.399 9.16667 277.979 9.43359C278.564 9.69401 279.014 10.0326 279.326 10.4492C279.639 10.8594 279.795 11.3802 279.795 12.0117C279.795 12.4805 279.694 12.9102 279.492 13.3008C279.297 13.6849 279.01 14.0202 278.633 14.3066C278.255 14.5866 277.803 14.8047 277.275 14.9609C276.755 15.1172 276.169 15.1953 275.518 15.1953C274.561 15.1953 273.75 15.026 273.086 14.6875C272.422 14.3424 271.917 13.903 271.572 13.3691C271.234 12.8288 271.064 12.2689 271.064 11.6895H273.34C273.366 12.1257 273.486 12.474 273.701 12.7344C273.923 12.9883 274.196 13.1738 274.521 13.291C274.854 13.4017 275.195 13.457 275.547 13.457C275.97 13.457 276.325 13.4017 276.611 13.291C276.898 13.1738 277.116 13.0176 277.266 12.8223C277.415 12.6204 277.49 12.3926 277.49 12.1387ZM286.514 15.1953C285.732 15.1953 285.026 15.0684 284.395 14.8145C283.77 14.554 283.236 14.1927 282.793 13.7305C282.357 13.2682 282.021 12.7246 281.787 12.0996C281.553 11.4746 281.436 10.8008 281.436 10.0781V9.6875C281.436 8.86068 281.556 8.11198 281.797 7.44141C282.038 6.77083 282.373 6.19792 282.803 5.72266C283.232 5.24089 283.74 4.87305 284.326 4.61914C284.912 4.36523 285.547 4.23828 286.23 4.23828C286.986 4.23828 287.646 4.36523 288.213 4.61914C288.779 4.87305 289.248 5.23112 289.619 5.69336C289.997 6.14909 290.277 6.69271 290.459 7.32422C290.648 7.95573 290.742 8.65234 290.742 9.41406V10.4199H282.578V8.73047H288.418V8.54492C288.405 8.12174 288.32 7.72461 288.164 7.35352C288.014 6.98242 287.783 6.68294 287.471 6.45508C287.158 6.22721 286.742 6.11328 286.221 6.11328C285.83 6.11328 285.482 6.19792 285.176 6.36719C284.876 6.52995 284.626 6.76758 284.424 7.08008C284.222 7.39258 284.066 7.77018 283.955 8.21289C283.851 8.64909 283.799 9.14062 283.799 9.6875V10.0781C283.799 10.5404 283.861 10.9701 283.984 11.3672C284.115 11.7578 284.303 12.0996 284.551 12.3926C284.798 12.6855 285.098 12.9167 285.449 13.0859C285.801 13.2487 286.201 13.3301 286.65 13.3301C287.217 13.3301 287.721 13.2161 288.164 12.9883C288.607 12.7604 288.991 12.4382 289.316 12.0215L290.557 13.2227C290.329 13.5547 290.033 13.8737 289.668 14.1797C289.303 14.4792 288.857 14.7233 288.33 14.9121C287.809 15.1009 287.204 15.1953 286.514 15.1953ZM294.941 6.44531V15H292.588V4.43359H294.834L294.941 6.44531ZM298.174 4.36523L298.154 6.55273C298.011 6.52669 297.855 6.50716 297.686 6.49414C297.523 6.48112 297.36 6.47461 297.197 6.47461C296.794 6.47461 296.439 6.5332 296.133 6.65039C295.827 6.76107 295.57 6.92383 295.361 7.13867C295.16 7.34701 295.003 7.60091 294.893 7.90039C294.782 8.19987 294.717 8.53516 294.697 8.90625L294.16 8.94531C294.16 8.28125 294.225 7.66602 294.355 7.09961C294.486 6.5332 294.681 6.03516 294.941 5.60547C295.208 5.17578 295.54 4.84049 295.938 4.59961C296.341 4.35872 296.807 4.23828 297.334 4.23828C297.477 4.23828 297.63 4.2513 297.793 4.27734C297.962 4.30339 298.089 4.33268 298.174 4.36523ZM303.262 13.1348L305.85 4.43359H308.291L304.619 15H303.096L303.262 13.1348ZM301.279 4.43359L303.916 13.1738L304.043 15H302.52L298.828 4.43359H301.279ZM314.268 15.1953C313.486 15.1953 312.78 15.0684 312.148 14.8145C311.523 14.554 310.99 14.1927 310.547 13.7305C310.111 13.2682 309.775 12.7246 309.541 12.0996C309.307 11.4746 309.189 10.8008 309.189 10.0781V9.6875C309.189 8.86068 309.31 8.11198 309.551 7.44141C309.792 6.77083 310.127 6.19792 310.557 5.72266C310.986 5.24089 311.494 4.87305 312.08 4.61914C312.666 4.36523 313.301 4.23828 313.984 4.23828C314.74 4.23828 315.4 4.36523 315.967 4.61914C316.533 4.87305 317.002 5.23112 317.373 5.69336C317.751 6.14909 318.031 6.69271 318.213 7.32422C318.402 7.95573 318.496 8.65234 318.496 9.41406V10.4199H310.332V8.73047H316.172V8.54492C316.159 8.12174 316.074 7.72461 315.918 7.35352C315.768 6.98242 315.537 6.68294 315.225 6.45508C314.912 6.22721 314.495 6.11328 313.975 6.11328C313.584 6.11328 313.236 6.19792 312.93 6.36719C312.63 6.52995 312.38 6.76758 312.178 7.08008C311.976 7.39258 311.82 7.77018 311.709 8.21289C311.605 8.64909 311.553 9.14062 311.553 9.6875V10.0781C311.553 10.5404 311.615 10.9701 311.738 11.3672C311.868 11.7578 312.057 12.0996 312.305 12.3926C312.552 12.6855 312.852 12.9167 313.203 13.0859C313.555 13.2487 313.955 13.3301 314.404 13.3301C314.971 13.3301 315.475 13.2161 315.918 12.9883C316.361 12.7604 316.745 12.4382 317.07 12.0215L318.311 13.2227C318.083 13.5547 317.786 13.8737 317.422 14.1797C317.057 14.4792 316.611 14.7233 316.084 14.9121C315.563 15.1009 314.958 15.1953 314.268 15.1953ZM326.777 12.8125V0H329.141V15H327.002L326.777 12.8125ZM319.902 9.83398V9.62891C319.902 8.82812 319.997 8.09896 320.186 7.44141C320.374 6.77734 320.648 6.20768 321.006 5.73242C321.364 5.25065 321.8 4.88281 322.314 4.62891C322.829 4.36849 323.408 4.23828 324.053 4.23828C324.691 4.23828 325.251 4.36198 325.732 4.60938C326.214 4.85677 326.624 5.21159 326.963 5.67383C327.301 6.12956 327.572 6.67643 327.773 7.31445C327.975 7.94596 328.118 8.64909 328.203 9.42383V10.0781C328.118 10.8333 327.975 11.5234 327.773 12.1484C327.572 12.7734 327.301 13.3138 326.963 13.7695C326.624 14.2253 326.211 14.5768 325.723 14.8242C325.241 15.0716 324.678 15.1953 324.033 15.1953C323.395 15.1953 322.819 15.0618 322.305 14.7949C321.797 14.528 321.364 14.1536 321.006 13.6719C320.648 13.1901 320.374 12.6237 320.186 11.9727C319.997 11.3151 319.902 10.6022 319.902 9.83398ZM322.256 9.62891V9.83398C322.256 10.3158 322.298 10.765 322.383 11.1816C322.474 11.5983 322.614 11.9661 322.803 12.2852C322.992 12.5977 323.236 12.8451 323.535 13.0273C323.841 13.2031 324.206 13.291 324.629 13.291C325.163 13.291 325.602 13.1738 325.947 12.9395C326.292 12.7051 326.562 12.3893 326.758 11.9922C326.96 11.5885 327.096 11.1393 327.168 10.6445V8.87695C327.129 8.49284 327.048 8.13477 326.924 7.80273C326.807 7.4707 326.647 7.18099 326.445 6.93359C326.243 6.67969 325.993 6.48438 325.693 6.34766C325.4 6.20443 325.052 6.13281 324.648 6.13281C324.219 6.13281 323.854 6.22396 323.555 6.40625C323.255 6.58854 323.008 6.83919 322.812 7.1582C322.624 7.47721 322.484 7.84831 322.393 8.27148C322.301 8.69466 322.256 9.14714 322.256 9.62891Z" fill="#CBD5E1"/>
</svg>
